<svg width="38" height="36" viewBox="0 0 38 36" fill="none" xmlns="http://www.w3.org/2000/svg">
<g id="Group">
<g id="Group_2">
<g id="Group_3" opacity="0.85">
<path id="Vector" d="M5.34611 6.75777C4.58281 8.07921 4.49531 10.3088 4.58281 12.1341C4.66728 13.8507 5.96459 15.2627 7.66618 15.4859L15.7427 16.5479C18.8803 16.9612 20.95 13.3771 19.0221 10.8669L14.0622 4.40451C13.0153 3.04083 11.1448 2.62147 9.61817 3.4089C7.99805 4.24461 6.10941 5.43633 5.34611 6.75777Z" fill="url(#paint0_linear_148_5700)"/>
</g>
<g id="Group_4" opacity="0.6">
<path id="Vector_2" d="M14.4243 0.711735C13.3231 1.34832 12.3214 2.85078 11.5823 4.23257C10.7586 5.77123 11.1599 7.67798 12.5447 8.73996L17.4443 12.4991C19.9544 14.424 23.5386 12.3543 23.1253 9.21966L22.3197 3.09516C22.0905 1.36341 20.6423 0.0630803 18.8955 0.00877441C17.3296 -0.0364805 15.5255 0.0781659 14.4243 0.711735Z" fill="url(#paint1_linear_148_5700)"/>
</g>
<g id="Group_5" opacity="0.45">
<path id="Vector_3" d="M24.2446 0.0238647C23.1826 0.0238647 21.8491 0.645366 20.7026 1.33022C19.2031 2.22627 18.6118 4.10284 19.2786 5.71694L20.9621 9.78082C22.1719 12.7043 26.3112 12.7043 27.524 9.78082L29.2075 5.71694C29.8743 4.10284 29.2829 2.22627 27.7835 1.33022C26.64 0.645366 25.3065 0.0238647 24.2446 0.0238647Z" fill="url(#paint2_linear_148_5700)"/>
</g>
<g id="Group_6" opacity="0.3">
<path id="Vector_4" d="M32.1914 3.89166C31.4613 3.46928 30.348 3.3305 29.2709 3.31542C27.4788 3.29128 25.9553 4.62781 25.7199 6.40482L25.3549 9.16838C24.9415 12.3061 28.5257 14.3757 31.0359 12.4479L33.2473 10.7523C34.6714 9.66015 35.0636 7.67497 34.1464 6.13329C33.6003 5.20707 32.9245 4.31404 32.1914 3.89166Z" fill="url(#paint3_linear_148_5700)"/>
</g>
<g id="Group_7" opacity="0.2">
<path id="Vector_5" d="M36.6444 10.5622C36.3246 10.0071 35.7001 9.48517 35.0122 9.03865C33.4645 8.03399 31.3978 8.40207 30.2755 9.86531L29.467 10.9182C27.5421 13.4284 29.6118 17.0126 32.7464 16.5992L34.0649 16.4273C35.8962 16.1859 37.2478 14.5809 37.1512 12.7375C37.103 11.9199 36.9642 11.1174 36.6444 10.5622Z" fill="url(#paint4_linear_148_5700)"/>
</g>
<g id="Group_8" opacity="0.2">
<path id="Vector_6" d="M37.1483 17.7216C37.1483 17.2781 37.0004 16.7712 36.7802 16.2613C36.0199 14.4994 33.9563 13.7059 32.1823 14.4391C29.2588 15.6489 29.2588 19.7882 32.1823 21.001C33.9563 21.7342 36.0169 20.9407 36.7802 19.1788C36.9974 18.6719 37.1483 18.165 37.1483 17.7216Z" fill="url(#paint5_linear_148_5700)"/>
</g>
<g id="Group_9" opacity="0.2">
<path id="Vector_7" d="M36.6444 24.8266C36.9642 24.2715 37.103 23.4689 37.1483 22.6483C37.2448 20.8049 35.8932 19.1999 34.0619 18.9585L32.7434 18.7866C29.6058 18.3732 27.5361 21.9574 29.464 24.4676L30.2725 25.5205C31.3979 26.9868 33.4615 27.3548 35.0092 26.3472C35.7001 25.9037 36.3246 25.3817 36.6444 24.8266Z" fill="url(#paint6_linear_148_5700)"/>
</g>
<g id="Group_10" opacity="0.3">
<path id="Vector_8" d="M32.1913 31.4972C32.9214 31.0748 33.6002 30.1787 34.1493 29.2555C35.0665 27.7139 34.6713 25.7287 33.2503 24.6365L31.0388 22.941C28.5287 21.0161 24.9445 23.0858 25.3578 26.2204L25.7229 28.984C25.9582 30.761 27.4787 32.0975 29.2739 32.0734C30.3479 32.0583 31.4612 31.9195 32.1913 31.4972Z" fill="url(#paint7_linear_148_5700)"/>
</g>
<g id="Group_11" opacity="0.45">
<path id="Vector_9" d="M24.2446 35.3438C25.3066 35.3438 26.6401 34.7223 27.7865 34.0375C29.286 33.1414 29.8773 31.2648 29.2106 29.6507L27.5271 25.5869C26.3173 22.6634 22.1779 22.6634 20.9651 25.5869L19.2816 29.6507C18.6149 31.2648 19.2062 33.1414 20.7057 34.0375C21.8491 34.7193 23.1826 35.3438 24.2446 35.3438Z" fill="url(#paint8_linear_148_5700)"/>
</g>
<g id="Group_12" opacity="0.6">
<path id="Vector_10" d="M14.4243 34.7314C15.5255 35.368 17.3296 35.4826 18.8955 35.4313C20.6393 35.377 22.0905 34.0737 22.3197 32.3449L23.1253 26.2204C23.5386 23.0828 19.9544 21.0131 17.4443 22.941L12.5447 26.7001C11.1599 27.7621 10.7586 29.6689 11.5823 31.2075C12.3214 32.5893 13.3231 34.0948 14.4243 34.7314Z" fill="url(#paint9_linear_148_5700)"/>
</g>
<g id="Group_13" opacity="0.85">
<path id="Vector_11" d="M5.34609 28.5797C6.10939 29.9012 7.99501 31.0929 9.62117 31.9286C11.1508 32.716 13.0183 32.2967 14.0652 30.933L19.0251 24.4706C20.95 21.9604 18.8803 18.3762 15.7457 18.7896L7.66918 19.8515C5.96458 20.0748 4.66727 21.4868 4.58581 23.2034C4.4953 25.0257 4.58581 27.2583 5.34609 28.5797Z" fill="url(#paint10_linear_148_5700)"/>
</g>
<g id="Group_14" opacity="0.9">
<path id="Vector_12" d="M0 17.6673C0 19.4684 1.30334 21.8337 2.45885 23.5806C3.39714 24.9986 5.20733 25.5537 6.77919 24.902L16.325 20.9467C19.2484 19.7369 19.2484 15.5976 16.325 14.3848L6.77919 10.4295C5.20733 9.77784 3.39714 10.333 2.45885 11.751C1.30334 13.5008 0 15.8661 0 17.6673Z" fill="url(#paint11_linear_148_5700)"/>
</g>
</g>
</g>
<defs>
<linearGradient id="paint0_linear_148_5700" x1="17.7363" y1="4.94845" x2="2.6617" y2="21.1466" gradientUnits="userSpaceOnUse">
<stop stop-color="#B3C2CB"/>
<stop offset="1" stop-color="#EA8E87"/>
</linearGradient>
<linearGradient id="paint1_linear_148_5700" x1="18.7137" y1="5.85806" x2="3.63911" y2="22.0562" gradientUnits="userSpaceOnUse">
<stop stop-color="#B3C2CB"/>
<stop offset="1" stop-color="#EA8E87"/>
</linearGradient>
<linearGradient id="paint2_linear_148_5700" x1="21.4921" y1="8.44381" x2="6.41755" y2="24.642" gradientUnits="userSpaceOnUse">
<stop stop-color="#B3C2CB"/>
<stop offset="1" stop-color="#EA8E87"/>
</linearGradient>
<linearGradient id="paint3_linear_148_5700" x1="25.6193" y1="12.2847" x2="10.5447" y2="28.4828" gradientUnits="userSpaceOnUse">
<stop stop-color="#B3C2CB"/>
<stop offset="1" stop-color="#EA8E87"/>
</linearGradient>
<linearGradient id="paint4_linear_148_5700" x1="29.8514" y1="16.2233" x2="14.7769" y2="32.4214" gradientUnits="userSpaceOnUse">
<stop stop-color="#B3C2CB"/>
<stop offset="1" stop-color="#EA8E87"/>
</linearGradient>
<linearGradient id="paint5_linear_148_5700" x1="32.5761" y1="18.759" x2="17.5016" y2="34.9571" gradientUnits="userSpaceOnUse">
<stop stop-color="#B3C2CB"/>
<stop offset="1" stop-color="#EA8E87"/>
</linearGradient>
<linearGradient id="paint6_linear_148_5700" x1="34.7085" y1="20.7435" x2="19.634" y2="36.9416" gradientUnits="userSpaceOnUse">
<stop stop-color="#B3C2CB"/>
<stop offset="1" stop-color="#EA8E87"/>
</linearGradient>
<linearGradient id="paint7_linear_148_5700" x1="35.1536" y1="21.1577" x2="20.079" y2="37.3558" gradientUnits="userSpaceOnUse">
<stop stop-color="#B3C2CB"/>
<stop offset="1" stop-color="#EA8E87"/>
</linearGradient>
<linearGradient id="paint8_linear_148_5700" x1="33.6586" y1="19.7663" x2="18.584" y2="35.9644" gradientUnits="userSpaceOnUse">
<stop stop-color="#B3C2CB"/>
<stop offset="1" stop-color="#EA8E87"/>
</linearGradient>
<linearGradient id="paint9_linear_148_5700" x1="30.0508" y1="16.4088" x2="14.9762" y2="32.6069" gradientUnits="userSpaceOnUse">
<stop stop-color="#B3C2CB"/>
<stop offset="1" stop-color="#EA8E87"/>
</linearGradient>
<linearGradient id="paint10_linear_148_5700" x1="23.9585" y1="10.7391" x2="8.88394" y2="26.9373" gradientUnits="userSpaceOnUse">
<stop stop-color="#B3C2CB"/>
<stop offset="1" stop-color="#EA8E87"/>
</linearGradient>
<linearGradient id="paint11_linear_148_5700" x1="19.0548" y1="6.17558" x2="3.98023" y2="22.3737" gradientUnits="userSpaceOnUse">
<stop stop-color="#B3C2CB"/>
<stop offset="1" stop-color="#EA8E87"/>
</linearGradient>
</defs>
</svg>
